<svg width="43" height="43" viewBox="0 0 43 43" fill="none" xmlns="http://www.w3.org/2000/svg">
<line x1="0.5" y1="2.18556e-08" x2="0.499999" y2="15" stroke="#6D8EA2"/>
<line x1="15" y1="0.5" y2="0.5" stroke="#6D8EA2"/>
<line x1="42.5" y1="43" x2="42.5" y2="28" stroke="#6D8EA2"/>
<line x1="28" y1="42.5" x2="43" y2="42.5" stroke="#6D8EA2"/>
<line x1="43" y1="0.5" x2="28" y2="0.499999" stroke="#6D8EA2"/>
<line x1="42.5" y1="15" x2="42.5" y2="-2.18557e-08" stroke="#6D8EA2"/>
<line x1="8.74227e-08" y1="42.5" x2="15" y2="42.5" stroke="#6D8EA2"/>
<line x1="0.5" y1="28" x2="0.499998" y2="43" stroke="#6D8EA2"/>
<path d="M29.5 18H28V15C28 11.6865 25.3135 9 22 9C18.6865 9 16 11.6865 16 15V18H14.5C13.6709 18 13 18.6709 13 19.5V31.5C13 32.3291 13.6709 33 14.5 33H29.5C30.3291 33 31 32.3291 31 31.5V19.5C31 18.6709 30.3291 18 29.5 18ZM22 27C21.1709 27 20.5 26.3291 20.5 25.5C20.5 24.6709 21.1709 24 22 24C22.8291 24 23.5 24.6709 23.5 25.5C23.5 26.3291 22.8291 27 22 27ZM25 18H19V15C19 13.3432 20.3432 12 22 12C23.6567 12 25 13.3432 25 15V18Z" fill="#6D8EA2"/>
</svg>
