<svg width="43" height="43" viewBox="0 0 43 43" fill="none" xmlns="http://www.w3.org/2000/svg">
<line x1="0.5" y1="2.18556e-08" x2="0.499999" y2="15" stroke="#6D8EA2"/>
<line x1="15" y1="0.5" y2="0.5" stroke="#6D8EA2"/>
<line x1="42.5" y1="43" x2="42.5" y2="28" stroke="#6D8EA2"/>
<line x1="28" y1="42.5" x2="43" y2="42.5" stroke="#6D8EA2"/>
<line x1="43" y1="0.5" x2="28" y2="0.499999" stroke="#6D8EA2"/>
<line x1="42.5" y1="15" x2="42.5" y2="-2.18557e-08" stroke="#6D8EA2"/>
<line x1="8.74227e-08" y1="42.5" x2="15" y2="42.5" stroke="#6D8EA2"/>
<line x1="0.5" y1="28" x2="0.499998" y2="43" stroke="#6D8EA2"/>
<path d="M9.71354 22.1236C9.36017 22.6402 9.13782 23.4023 9.14689 24.0522C9.14952 24.2096 9.14653 24.2283 9.14104 24.1082L9.13046 23.9274L9.12688 24.0879C9.11707 24.4805 9.34254 25.5573 9.55519 26.1229C9.92503 27.1181 10.4406 27.9989 11.195 28.9391C11.5077 29.3261 12.355 30.1733 12.7483 30.4924C13.1416 30.8083 13.7319 31.2283 14.0527 31.416C16.0789 32.6125 18.1422 32.8587 19.4349 32.0586C20.0045 31.7087 20.4385 31.1398 20.6321 30.4912C20.9719 29.3606 20.7772 27.9957 20.0658 26.5011L19.9346 26.2212L20.0251 26.2343C20.2045 26.262 20.449 26.2403 20.6123 26.1869C20.9512 26.0739 21.1431 25.8788 21.3056 25.4841C21.4329 25.1779 21.4392 24.9614 21.3342 24.6428C21.312 24.5772 21.2991 24.5147 21.3037 24.5101C21.3099 24.5039 21.3988 24.5185 21.5018 24.541C21.9592 24.6485 22.3463 24.5218 22.5576 24.1976C22.6548 24.0471 22.7944 23.7223 22.8185 23.5916C22.838 23.481 22.8352 23.3049 22.8095 23.1957L22.7967 23.1364L22.9433 23.1498C23.1132 23.165 23.3685 23.1262 23.5286 23.0634C23.8161 22.9454 24.008 22.7441 24.1676 22.3836C24.272 22.1443 24.3003 21.9622 24.2662 21.7578C24.2516 21.6751 24.2434 21.6049 24.248 21.6003C24.2527 21.5957 24.301 21.6038 24.3572 21.6166C24.607 21.6775 24.9697 21.6223 25.2259 21.4823C25.406 21.3837 25.6024 21.1591 25.7161 20.9199C25.8343 20.6667 25.8601 20.5562 25.8477 20.3333L25.8371 20.1462L26.0911 20.1495C26.2859 20.1524 26.384 20.139 26.5161 20.0916C26.838 19.98 27.0254 19.8083 27.1914 19.4728C27.3159 19.2259 27.3479 19.1154 27.3513 18.93L27.355 18.7726L27.4329 18.7763C27.5529 18.7818 27.8719 18.7138 27.9993 18.6555C28.2961 18.5219 28.5065 18.3051 28.6756 17.9541C28.7939 17.704 28.8209 17.5452 28.7865 17.3035L28.7702 17.2005L28.9259 17.1797C29.242 17.1398 29.5343 17.0452 29.7702 16.9065C29.9208 16.8187 30.1174 16.6283 30.1744 16.5181C30.2774 16.3115 30.2893 16.0015 30.2033 15.7329C30.1778 15.6485 30.1539 15.5751 30.1539 15.5689C30.1539 15.5627 30.2504 15.554 30.3672 15.547C30.7754 15.5248 31.0554 15.4488 31.2974 15.2915C31.7303 15.0092 31.8217 14.466 31.5326 13.8983L31.46 13.7607L31.586 13.7257C31.88 13.6451 32.134 13.4193 32.2908 13.0962C32.4153 12.8431 32.4359 12.6624 32.375 12.4096C32.3173 12.1723 32.0699 11.7763 31.8236 11.53L31.753 11.4594L31.9254 10.9198C32.0918 10.3989 32.0963 10.3787 32.0508 10.3332C32.0257 10.3081 31.9738 10.2345 31.9344 10.1672C31.8776 10.0702 31.8572 10.0498 31.8308 10.0574C31.8121 10.0604 31.8027 10.0572 31.8089 10.051C31.8244 10.0355 31.274 9.99286 31.0886 9.99627C30.7956 10.0005 30.2926 10.0548 30.176 10.0929C30.0578 10.1327 30.0206 10.1573 29.858 10.3105L29.7837 10.3817L29.6073 10.3353C29.3294 10.2617 28.9239 10.2122 28.6465 10.2135C28.1074 10.2192 27.756 10.3446 27.5194 10.6126C27.3895 10.7613 27.3374 10.8981 27.3326 11.1038L27.329 11.2643L27.0701 11.2376C26.554 11.1826 26.0729 11.2495 25.7468 11.425C25.59 11.5096 25.3934 11.7124 25.3305 11.8538C25.2599 12.0123 25.2378 12.1976 25.2671 12.3848L25.2931 12.5439L25.0453 12.5407C24.5762 12.5359 24.237 12.6116 23.9748 12.7828C23.6629 12.9879 23.5311 13.308 23.6039 13.6997C23.6217 13.798 23.6363 13.8838 23.6379 13.8885C23.6379 13.8947 23.5398 13.9018 23.4214 13.9073C22.8621 13.93 22.4658 14.0909 22.2698 14.3779C22.2235 14.4461 22.1712 14.5424 22.156 14.5953C22.1132 14.7228 22.1118 14.9815 22.1488 15.1422C22.1664 15.2125 22.1809 15.2765 22.1824 15.2811C22.1825 15.2874 22.0906 15.2945 21.98 15.2985C21.1854 15.3243 20.7399 15.5908 20.639 16.0997C20.6073 16.2569 20.6291 16.483 20.6942 16.6658L20.7371 16.7892L20.5672 16.7834C20.3272 16.7755 19.9925 16.8247 19.778 16.9011C19.2463 17.0877 19.0232 17.5178 19.1703 18.0736L19.2103 18.225L18.9874 18.2126C18.8658 18.2055 18.6648 18.2089 18.5418 18.2221C17.7351 18.307 17.3423 18.7562 17.4902 19.4273L17.5272 19.5912L17.2716 19.5864C16.7058 19.5779 16.3218 19.7046 16.0867 19.9742C15.8997 20.1926 15.8457 20.5133 15.9415 20.8474L15.9798 20.9879L15.6447 20.9748C15.1397 20.9589 14.8238 21.0269 14.5632 21.2059L14.4376 21.2938L14.1424 21.1999C13.032 20.848 12.0141 20.799 11.2086 21.0585C10.6908 21.2248 10.4502 21.365 10.0801 21.7194C9.88816 21.9051 9.78451 22.0181 9.71354 22.1236Z" fill="#6D8EA2"/>
</svg>
