<svg width="134" height="40" viewBox="0 0 134 40" fill="none" xmlns="http://www.w3.org/2000/svg">
<g clip-path="url(#clip0_1636_2512)">
<path d="M18.0219 40.0001C14.4362 40.0001 11.2825 39.211 8.56082 37.6329C5.83852 36.0243 3.63301 33.6698 2.20471 30.8472C0.734904 27.9072 0 24.4622 0 20.5122C0 16.6349 0.753061 13.2253 2.25918 10.2834C3.6714 7.40879 5.89794 5.01385 8.66116 3.39723C11.423 1.74455 14.6331 0.917254 18.2914 0.915341C21.0523 0.868601 23.7906 1.41964 26.3189 2.53072C28.5715 3.51549 30.5083 5.10425 31.9153 7.12149C33.3296 9.14411 34.1155 11.5397 34.1745 14.0077L27.4342 14.4811C27.3635 10.7147 26.4852 7.8455 24.7994 5.87338C23.1519 3.89552 20.8927 2.90659 18.0219 2.90659C14.5413 2.90659 11.8655 4.34121 9.99431 7.21044C8.16517 10.0797 7.2506 14.0459 7.2506 19.1092C7.2506 25.0676 8.255 29.644 10.2638 32.8384C12.2726 36.0329 15.1597 37.6301 18.925 37.6301C20.5263 37.6655 22.1126 37.3141 23.5494 36.6057C24.9384 35.8703 26.1362 34.8199 27.0471 33.5385V24.8734C27.0652 24.5573 27.0004 24.2418 26.8591 23.9585C26.7178 23.6751 26.5049 23.4337 26.2415 23.2581L21.6687 22.9884V21.4275H37.698V22.9884L34.3637 23.2036C34.1184 23.3932 33.922 23.6387 33.7909 23.9197C33.6597 24.2007 33.5976 24.509 33.6097 24.8189V39.452H32.05C31.8408 37.8021 31.4623 36.1781 30.9204 34.6059C29.2745 36.2907 27.32 37.6428 25.1635 38.5884C22.9037 39.5403 20.4736 40.0207 18.0219 40.0001Z" fill="#0D0D0D"/>
<path d="M40.9318 40C39.9283 40 39.1571 39.6949 38.6181 39.0847C38.083 38.4401 37.8144 37.543 37.8125 36.3934C37.8201 35.2024 38.0195 34.0204 38.4031 32.8929L48.1508 2.47902L43.621 1.93673L44.0539 0.484901C47.6104 0.515944 51.1658 0.354074 54.7048 0L43.7844 34.0779C43.6434 34.5147 43.553 34.9662 43.5149 35.4236C43.5031 35.5111 43.5116 35.6003 43.5399 35.684C43.5681 35.7677 43.6153 35.8438 43.6777 35.9062C43.7401 35.9687 43.8161 36.0159 43.8998 36.0442C43.9835 36.0725 44.0725 36.081 44.16 36.0691C44.5901 36.0691 45.1634 35.6206 45.8802 34.7235C46.639 33.8283 47.7514 32.2005 49.2174 29.84L50.4014 30.5401C49.268 32.5115 48.0237 34.4169 46.6744 36.247C45.8561 37.355 44.8772 38.3347 43.7701 39.1536C42.9257 39.7044 41.9398 39.9985 40.9318 40Z" fill="#56CBD2"/>
<path d="M76.8523 31.3321C74.5588 37.1107 70.6855 40 65.2325 40C62.9005 40.0445 60.5984 39.4693 58.561 38.333C56.6162 37.1744 55.0326 35.4962 53.9881 33.4869C52.914 31.4038 52.3759 28.9994 52.374 26.2736C52.374 23.4369 52.8939 20.9416 53.9337 18.7878C54.9299 16.7032 56.505 14.9498 58.4705 13.7373C60.4361 12.5248 62.7089 11.9044 65.0174 11.9504C67.4907 11.9504 69.6419 12.4716 71.471 13.5141C73.2586 14.4743 74.6914 15.9828 75.5593 17.818C76.4921 19.6485 76.8686 21.8014 76.6889 24.2766H59.1516V24.4918C59.1516 28.2964 59.8874 31.2613 61.3592 33.3864C62.0295 34.3917 62.9436 35.2105 64.0161 35.7659C65.0887 36.3214 66.2845 36.5956 67.4916 36.5627C69.1377 36.5907 70.7481 36.081 72.0788 35.1108C73.4416 34.141 74.5712 32.6873 75.4676 30.7496L76.8523 31.3321ZM64.963 13.89C63.3116 13.89 61.9842 14.6255 60.9807 16.0964C60.0155 17.533 59.4239 19.6371 59.206 22.4087H69.9114C70.0547 19.6428 69.6963 17.5387 68.8363 16.0964C68.462 15.4024 67.9005 14.8277 67.2156 14.4375C66.5308 14.0474 65.7503 13.8577 64.963 13.89Z" fill="#0D0D0D"/>
<path d="M108.47 37.7935V39.3084H95.2355V37.8021L97.7642 37.5869C98.0115 37.3754 98.2078 37.1107 98.3384 36.8126C98.469 36.5145 98.5305 36.1906 98.5182 35.8653V20.7818C98.5182 19.0602 98.1417 17.7499 97.3886 16.8509C96.6719 15.9461 95.5958 15.4938 94.1604 15.4938C93.3071 15.4989 92.4643 15.6827 91.6862 16.0332C90.5949 16.5842 89.5663 17.2519 88.6185 18.0244V35.8653C88.6063 36.1906 88.6678 36.5145 88.7984 36.8126C88.929 37.1107 89.1253 37.3754 89.3726 37.5869L91.9012 37.8021V39.3084H78.6672V37.8021L81.5715 37.5869C81.8188 37.3754 82.0151 37.1107 82.1457 36.8126C82.2762 36.5145 82.3377 36.1906 82.3255 35.8653V14.8597L78.3433 14.1051V12.6504C81.6838 12.6866 85.0239 12.5429 88.349 12.22V16.2053C90.3597 14.6253 92.0274 13.5274 93.3519 12.9115C94.5907 12.2956 95.9512 11.9643 97.3342 11.9417C99.6641 11.9417 101.475 12.6599 102.767 14.0964C104.094 15.5311 104.757 17.5233 104.757 20.0731V35.8538C104.745 36.1791 104.806 36.503 104.937 36.8011C105.067 37.0992 105.264 37.364 105.511 37.5754L108.47 37.7935Z" fill="#0D0D0D"/>
<path d="M120.086 40.0001C116.788 40.0001 114.224 39.211 112.394 37.633C110.603 36.053 109.671 33.8274 109.596 30.9562L115.677 30.6865C115.606 33.0183 116.036 34.8354 116.967 36.1381C117.936 37.4312 119.281 38.0777 121.001 38.0777C122.293 38.0777 123.316 37.7362 124.069 37.0534C124.465 36.6835 124.776 36.2316 124.98 35.7291C125.184 35.2267 125.276 34.6857 125.25 34.144C125.279 33.1581 124.976 32.1912 124.39 31.3981C123.812 30.6409 123.079 30.0167 122.24 29.5675C121.379 29.0664 120.195 28.4744 118.687 27.7915C116.967 27.0034 115.587 26.3033 114.547 25.6912C113.493 25.0328 112.578 24.1729 111.855 23.1605C111.139 22.0855 110.78 20.758 110.78 19.178C110.78 16.9515 111.64 15.1927 113.361 13.9015C115.117 12.6104 117.466 11.9638 120.408 11.9619C123.42 11.9619 125.787 12.6438 127.509 14.0077C129.264 15.3352 130.214 17.1839 130.359 19.5539L124.338 19.8781C124.373 18.0112 123.96 16.5575 123.1 15.5169C122.24 14.4419 121.056 13.9034 119.55 13.9015C118.438 13.9015 117.578 14.1884 116.97 14.7623C116.659 15.0701 116.416 15.4405 116.259 15.8491C116.101 16.2576 116.032 16.695 116.056 17.1323C116.031 18.0585 116.315 18.9667 116.861 19.7146C117.452 20.4092 118.163 20.9923 118.96 21.4361C119.82 21.9009 120.967 22.4576 122.4 23.106C123.856 23.7386 125.275 24.4542 126.649 25.2493C127.747 25.9149 128.684 26.8153 129.393 27.8862C130.146 28.965 130.522 30.3116 130.522 31.926C130.553 33.0669 130.304 34.1979 129.798 35.2206C129.292 36.2433 128.543 37.1266 127.618 37.7936C125.718 39.2665 123.208 40.002 120.086 40.0001Z" fill="#0D0D0D"/>
<path d="M131.572 5.87906L132.013 7.0784H131.509L131.122 5.97088H130.468L130.239 7.0784H129.766L130.379 4.15465H131.454C131.679 4.14793 131.897 4.22928 132.062 4.38132C132.139 4.44834 132.201 4.53124 132.243 4.62435C132.285 4.71745 132.306 4.81856 132.306 4.92074C132.305 4.99905 132.295 5.07702 132.277 5.15315C132.262 5.21979 132.239 5.28435 132.208 5.34539C132.183 5.40058 132.151 5.45258 132.114 5.50032C132.073 5.54623 132.03 5.58927 131.993 5.62657C131.961 5.66822 131.923 5.70579 131.881 5.73847C131.845 5.76719 131.804 5.79039 131.761 5.80733L131.666 5.85611C131.646 5.86867 131.624 5.87833 131.6 5.8848L131.572 5.87906ZM130.752 4.62808L130.571 5.48885H131.19C131.361 5.49849 131.529 5.45103 131.669 5.35399C131.73 5.30883 131.779 5.24934 131.812 5.18078C131.844 5.11222 131.859 5.03671 131.856 4.96091C131.856 4.73711 131.712 4.62234 131.431 4.62234L130.752 4.62808ZM131.297 3.23937C130.948 3.2401 130.604 3.31199 130.285 3.45063C129.965 3.58927 129.677 3.79174 129.439 4.04562C129.183 4.28723 128.98 4.57856 128.841 4.90174C128.702 5.22491 128.63 5.57312 128.63 5.92497C128.622 6.19975 128.672 6.47314 128.777 6.72727C128.882 6.9814 129.039 7.21056 129.238 7.39976C129.449 7.59979 129.697 7.75544 129.969 7.85747C130.241 7.9595 130.531 8.00582 130.821 7.99369C131.167 7.99346 131.51 7.92348 131.828 7.78793C132.147 7.65237 132.435 7.454 132.676 7.20465C132.934 6.96178 133.139 6.66773 133.278 6.34121C133.416 6.01469 133.486 5.66285 133.481 5.30809C133.488 5.03321 133.437 4.75996 133.332 4.50595C133.227 4.25194 133.07 4.0228 132.871 3.8333C132.662 3.63573 132.417 3.48149 132.149 3.37954C131.881 3.27758 131.595 3.22994 131.308 3.23937H131.297ZM134 5.29087C133.997 5.83341 133.844 6.36449 133.559 6.82591C133.265 7.31483 132.854 7.72229 132.363 8.0109C131.88 8.30515 131.326 8.46006 130.76 8.4585C130.411 8.47028 130.062 8.41187 129.735 8.28671C129.408 8.16154 129.109 7.97216 128.857 7.72972C128.614 7.50014 128.422 7.22221 128.293 6.91384C128.164 6.60547 128.101 6.2735 128.108 5.93932C128.109 5.37907 128.269 4.83053 128.57 4.35837C128.871 3.88056 129.287 3.48596 129.78 3.21067C130.257 2.93549 130.798 2.79008 131.348 2.7889C131.698 2.77788 132.046 2.83694 132.372 2.96259C132.699 3.08824 132.997 3.27795 133.249 3.52055C133.49 3.74748 133.681 4.02201 133.81 4.32676C133.94 4.6315 134.004 4.95981 134 5.29087Z" fill="#0D0D0D"/>
</g>
<defs>
<clipPath id="clip0_1636_2512">
<rect width="134" height="40" fill="white"/>
</clipPath>
</defs>
</svg>
