<svg width="89" height="26" viewBox="0 0 89 26" fill="none" xmlns="http://www.w3.org/2000/svg">
<g clip-path="url(#clip0_1687_1194)">
<path d="M11.9697 26.0001C9.58824 26.0001 7.49363 25.4872 5.68591 24.4615C3.87783 23.4159 2.41297 21.8854 1.46432 20.0508C0.488108 18.1397 0 15.9005 0 13.333C0 10.8128 0.500168 8.59653 1.5005 6.68428C2.43847 4.81579 3.91729 3.25908 5.75256 2.20827C7.58693 1.13403 9.71899 0.596288 12.1487 0.595045C13.9825 0.564664 15.8012 0.922841 17.4805 1.64504C18.9766 2.28514 20.263 3.31783 21.1975 4.62905C22.1368 5.94374 22.6588 7.50087 22.698 9.10505L18.2212 9.41278C18.1742 6.96465 17.5909 5.09965 16.4713 3.81777C15.377 2.53216 13.8765 1.88936 11.9697 1.88936C9.65806 1.88936 7.88081 2.82186 6.63801 4.68686C5.42314 6.55186 4.8157 9.12992 4.8157 12.421C4.8157 16.294 5.4828 19.2687 6.817 21.3451C8.15121 23.4214 10.0687 24.4596 12.5696 24.4596C13.6331 24.4827 14.6867 24.2543 15.641 23.7938C16.5636 23.3158 17.3591 22.633 17.9641 21.8001V16.1678C17.9762 15.9623 17.9331 15.7573 17.8392 15.5731C17.7454 15.3889 17.604 15.232 17.4291 15.1178L14.3919 14.9425V13.9279H25.0382V14.9425L22.8236 15.0824C22.6607 15.2056 22.5303 15.3652 22.4432 15.5479C22.3561 15.7305 22.3148 15.9309 22.3228 16.1324V25.6439H21.287C21.148 24.5714 20.8966 23.5159 20.5367 22.4939C19.4435 23.5891 18.1454 24.4679 16.7131 25.0825C15.2122 25.7013 13.5981 26.0135 11.9697 26.0001Z" fill="#0D0D0D"/>
<path d="M27.186 26C26.5196 26 26.0073 25.8017 25.6493 25.4051C25.2939 24.9861 25.1155 24.4029 25.1143 23.6557C25.1193 22.8815 25.2518 22.1132 25.5065 21.3804L31.9808 1.61136L28.9721 1.25888L29.2597 0.315185C31.6218 0.335364 33.9833 0.230148 36.3338 0L29.0807 22.1506C28.987 22.4345 28.927 22.728 28.9017 23.0253C28.8938 23.0822 28.8995 23.1402 28.9183 23.1946C28.937 23.249 28.9683 23.2984 29.0098 23.3391C29.0513 23.3797 29.1018 23.4104 29.1573 23.4287C29.2129 23.4471 29.272 23.4526 29.3301 23.4449C29.6158 23.4449 29.9966 23.1534 30.4727 22.5703C30.9766 21.9884 31.7155 20.9303 32.6891 19.396L33.4756 19.8511C32.7228 21.1325 31.8963 22.371 31.0001 23.5606C30.4566 24.2808 29.8065 24.9175 29.0712 25.4498C28.5103 25.8079 27.8555 25.999 27.186 26Z" fill="#56CBD2"/>
<path d="M51.0436 20.3658C49.5203 24.1219 46.9477 25.9999 43.3259 25.9999C41.7771 26.0289 40.2481 25.655 38.8949 24.9164C37.6032 24.1633 36.5514 23.0725 35.8577 21.7664C35.1443 20.4124 34.7869 18.8495 34.7856 17.0778C34.7856 15.2339 35.1309 13.612 35.8215 12.212C36.4832 10.857 37.5293 9.71729 38.8348 8.92916C40.1403 8.14102 41.6499 7.73779 43.1831 7.76766C44.8258 7.76766 46.2546 8.10647 47.4695 8.78409C48.6567 9.40823 49.6084 10.3887 50.1848 11.5816C50.8043 12.7715 51.0544 14.1708 50.9351 15.7797H39.2872V15.9196C39.2872 18.3926 39.7759 20.3197 40.7534 21.7011C41.1986 22.3545 41.8058 22.8867 42.5181 23.2478C43.2304 23.6089 44.0247 23.787 44.8264 23.7656C45.9198 23.7839 46.9893 23.4526 47.8732 22.822C48.7783 22.1916 49.5285 21.2467 50.1239 19.9872L51.0436 20.3658ZM43.1469 9.0284C42.0501 9.0284 41.1685 9.50646 40.502 10.4626C39.8609 11.3963 39.4681 12.764 39.3233 14.5656H46.4336C46.5288 12.7677 46.2908 11.4001 45.7195 10.4626C45.4709 10.0115 45.098 9.63789 44.6431 9.38432C44.1883 9.13075 43.6699 9.00743 43.1469 9.0284Z" fill="#0D0D0D"/>
<path d="M72.0429 24.5659V25.5506H63.2532V24.5715L64.9327 24.4316C65.0969 24.2942 65.2273 24.1221 65.314 23.9283C65.4008 23.7345 65.4416 23.524 65.4335 23.3126V13.5083C65.4335 12.3893 65.1834 11.5376 64.6832 10.9532C64.2072 10.3651 63.4925 10.0711 62.5391 10.0711C61.9724 10.0744 61.4126 10.1939 60.8958 10.4217C60.1709 10.7799 59.4878 11.2138 58.8583 11.716V23.3126C58.8502 23.524 58.891 23.7345 58.9778 23.9283C59.0645 24.1221 59.1949 24.2942 59.3591 24.4316L61.0386 24.5715V25.5506H52.2489V24.5715L54.1778 24.4316C54.3421 24.2942 54.4724 24.1221 54.5592 23.9283C54.6459 23.7345 54.6867 23.524 54.6786 23.3126V9.65891L52.0337 9.16842V8.22286C54.2524 8.2464 56.4708 8.15302 58.6793 7.94311V10.5336C60.0148 9.50661 61.1224 8.79293 62.0021 8.39258C62.8249 7.99227 63.7285 7.7769 64.6471 7.76221C66.1945 7.76221 67.3973 8.22908 68.2555 9.16282C69.1365 10.0953 69.577 11.3903 69.577 13.0476V23.3051C69.5689 23.5166 69.6097 23.7271 69.6965 23.9209C69.7832 24.1146 69.9136 24.2867 70.0778 24.4241L72.0429 24.5659Z" fill="#0D0D0D"/>
<path d="M79.7589 26C77.5678 26 75.8649 25.4871 74.65 24.4613C73.4605 23.4343 72.841 21.9877 72.7915 20.1215L76.8303 19.9462C76.7833 21.4618 77.069 22.6429 77.6872 23.4897C78.3308 24.3302 79.2239 24.7504 80.3664 24.7504C81.2245 24.7504 81.9037 24.5285 82.4039 24.0846C82.6671 23.8442 82.8737 23.5505 83.0092 23.2238C83.1447 22.8972 83.2059 22.5456 83.1884 22.1935C83.2074 21.5527 83.0062 20.9242 82.6171 20.4087C82.2335 19.9165 81.7465 19.5107 81.189 19.2188C80.6177 18.893 79.8313 18.5082 78.8297 18.0644C77.6872 17.5521 76.7706 17.0971 76.08 16.6992C75.3795 16.2712 74.7719 15.7123 74.292 15.0543C73.816 14.3555 73.5779 13.4926 73.5779 12.4656C73.5779 11.0184 74.1492 9.87514 75.2917 9.03589C76.4583 8.19664 78.0185 7.77639 79.9722 7.77515C81.9729 7.77515 83.5451 8.2184 84.6889 9.10489C85.8543 9.96777 86.4852 11.1695 86.5817 12.7099L82.5829 12.9207C82.6057 11.7072 82.3315 10.7623 81.7602 10.0859C81.189 9.38713 80.4032 9.03713 79.4029 9.03589C78.664 9.03589 78.0928 9.22239 77.6891 9.59539C77.4823 9.79548 77.3213 10.0362 77.2166 10.3018C77.1119 10.5673 77.0659 10.8516 77.0816 11.1359C77.0656 11.7379 77.2537 12.3282 77.6167 12.8144C78.0094 13.2659 78.4815 13.6449 79.0106 13.9334C79.5819 14.2355 80.3435 14.5973 81.2956 15.0188C82.2627 15.43 83.2049 15.8951 84.1176 16.412C84.8468 16.8446 85.4691 17.4299 85.9399 18.1259C86.4401 18.8272 86.6902 19.7025 86.6902 20.7518C86.7104 21.4934 86.5452 22.2286 86.2091 22.8933C85.8729 23.558 85.3758 24.1322 84.7613 24.5658C83.4994 25.5231 81.832 26.0012 79.7589 26Z" fill="#0D0D0D"/>
<path d="M87.3871 3.82146L87.6803 4.60104H87.3452L87.0881 3.88114H86.6539L86.5016 4.60104H86.1874L86.5949 2.7006H87.309C87.458 2.69623 87.6029 2.7491 87.7127 2.84793C87.7639 2.89149 87.8048 2.94538 87.8328 3.0059C87.8607 3.06642 87.875 3.13214 87.8745 3.19855C87.8741 3.24945 87.8677 3.30014 87.8555 3.34962C87.8455 3.39294 87.8302 3.4349 87.8098 3.47457C87.793 3.51045 87.7719 3.54425 87.7469 3.57528C87.7203 3.60512 87.6917 3.6331 87.667 3.65734C87.6453 3.68442 87.6203 3.70884 87.5927 3.73008C87.5684 3.74874 87.5415 3.76382 87.5127 3.77484L87.4499 3.80654C87.4362 3.81471 87.4215 3.82099 87.4061 3.82519L87.3871 3.82146ZM86.8425 3.00832L86.7225 3.56782H87.1338C87.2468 3.57409 87.3587 3.54324 87.4518 3.48017C87.4923 3.45081 87.5247 3.41214 87.5463 3.36758C87.5679 3.32302 87.578 3.27393 87.5756 3.22466C87.5756 3.07919 87.4804 3.00459 87.2937 3.00459L86.8425 3.00832ZM87.2042 2.10566C86.973 2.10614 86.7443 2.15287 86.5321 2.24298C86.3199 2.3331 86.1287 2.4647 85.9703 2.62973C85.8006 2.78677 85.6654 2.97614 85.573 3.1862C85.4807 3.39627 85.4332 3.6226 85.4334 3.8513C85.428 4.02991 85.4612 4.20761 85.5308 4.3728C85.6003 4.53798 85.7047 4.68693 85.837 4.80992C85.9769 4.93994 86.142 5.04111 86.3226 5.10743C86.5032 5.17375 86.6955 5.20386 86.8882 5.19597C87.1181 5.19582 87.3457 5.15034 87.5574 5.06222C87.7691 4.97411 87.9605 4.84518 88.1202 4.6831C88.2918 4.52523 88.428 4.33409 88.5201 4.12186C88.6123 3.90962 88.6583 3.68093 88.6552 3.45033C88.6597 3.27166 88.626 3.09405 88.5561 2.92894C88.4863 2.76383 88.3819 2.61489 88.2497 2.49172C88.1114 2.3633 87.9484 2.26304 87.7703 2.19677C87.5921 2.1305 87.4023 2.09953 87.2119 2.10566H87.2042ZM88.9999 3.43914C88.9975 3.79179 88.8961 4.13699 88.7067 4.43692C88.512 4.75472 88.2389 5.01956 87.9126 5.20716C87.592 5.39842 87.2236 5.49911 86.8482 5.4981C86.6158 5.50576 86.3842 5.46779 86.1671 5.38643C85.9499 5.30508 85.7516 5.18198 85.5838 5.02439C85.4226 4.87517 85.295 4.69451 85.2094 4.49407C85.1238 4.29363 85.082 4.07785 85.0868 3.86063C85.0869 3.49647 85.1932 3.13992 85.3934 2.83301C85.5933 2.52244 85.8696 2.26595 86.1969 2.08701C86.5137 1.90814 86.8728 1.81362 87.2385 1.81286C87.4707 1.8057 87.702 1.84408 87.9188 1.92576C88.1356 2.00743 88.3336 2.13074 88.501 2.28843C88.661 2.43593 88.788 2.61438 88.8739 2.81247C88.9597 3.01055 89.0027 3.22395 88.9999 3.43914Z" fill="#0D0D0D"/>
</g>
<defs>
<clipPath id="clip0_1687_1194">
<rect width="89" height="26" fill="white"/>
</clipPath>
</defs>
</svg>
