<svg width="40" height="40" viewBox="0 0 40 40" fill="none" xmlns="http://www.w3.org/2000/svg">
<rect width="40" height="40" fill="url(#paint0_radial_3454_2353)"/>
<path fill-rule="evenodd" clip-rule="evenodd" d="M33 15.1815C33 19.7 29.322 23.363 24.7849 23.363C23.9571 23.363 22.0721 23.1727 21.155 22.4116L20.0087 23.5533C19.3348 24.2245 19.5168 24.4221 19.8166 24.7476C19.9416 24.8835 20.0874 25.0415 20.1998 25.2657C20.1998 25.2657 21.155 26.5975 20.1998 27.9294C19.6266 28.6904 18.0218 29.7559 16.1878 27.9294L15.8057 28.3099C15.8057 28.3099 16.952 29.6417 15.9968 30.9736C15.4236 31.7347 13.8952 32.4958 12.5579 31.1639L11.2206 32.4958C10.3035 33.409 9.18277 32.8763 8.73701 32.4958L7.59073 31.3541C6.52086 30.2886 7.14495 29.1343 7.59073 28.6904L17.5252 18.7966C17.5252 18.7966 16.5699 17.2744 16.5699 15.1815C16.5699 10.663 20.2479 7 24.7849 7C29.322 7 33 10.663 33 15.1815ZM24.7853 18.0356C26.3679 18.0356 27.6509 16.7578 27.6509 15.1816C27.6509 13.6054 26.3679 12.3276 24.7853 12.3276C23.2025 12.3276 21.9196 13.6054 21.9196 15.1816C21.9196 16.7578 23.2025 18.0356 24.7853 18.0356Z" fill="white"/>
<defs>
<radialGradient id="paint0_radial_3454_2353" cx="0" cy="0" r="1" gradientUnits="userSpaceOnUse" gradientTransform="translate(28.3158 -16.5263) rotate(98.1012) scale(59.0099)">
<stop stop-color="#6FE5ED"/>
<stop offset="1" stop-color="#56CBD2"/>
</radialGradient>
</defs>
</svg>
