<svg width="40" height="40" viewBox="0 0 40 40" fill="none" xmlns="http://www.w3.org/2000/svg">
<rect width="40" height="40" fill="url(#paint0_radial_3454_2352)"/>
<path d="M26.0558 25.416C25.8393 25.3369 25.6033 25.2281 25.3635 25.0991L21.3516 30.5096L21.0663 26.9651H18.9343L18.6489 30.5096L14.6371 25.0991C14.39 25.234 14.1519 25.3445 13.9442 25.416C11.8434 26.1375 6.68231 28.2125 7.01539 32.0993C7.09533 33.0321 12.353 34 20.0003 34C27.647 34 32.9047 33.0321 32.9846 32.0993C33.3178 28.2087 28.1433 26.1776 26.0558 25.416Z" fill="white"/>
<path d="M15.2634 17.3898C15.5554 19.004 16.0462 20.4279 16.6924 21.1294C16.6924 21.9706 16.6924 22.5843 16.6924 23.0755C16.6924 23.1249 16.6836 23.1768 16.6691 23.2305L18.9343 24.2948V25.8558H21.0663V24.2948L23.3303 23.231C23.3159 23.1774 23.307 23.1254 23.307 23.0755C23.307 22.5843 23.307 21.9706 23.307 21.1294C23.9544 20.4279 24.4452 19.004 24.7372 17.3898C25.4179 17.1526 25.8077 16.7729 26.2934 15.1117C26.8109 13.3421 25.5156 13.4023 25.5156 13.4023C26.5633 10.0186 25.1836 6.83856 22.8741 7.07202C21.2806 4.35242 15.9441 7.69327 14.2707 7.46041C14.2707 8.39311 14.6694 9.09239 14.6694 9.09239C14.0876 10.1692 14.3118 12.3163 14.4762 13.4023C14.3807 13.4006 13.2092 13.4125 13.7067 15.1117C14.1929 16.7729 14.5816 17.1527 15.2634 17.3898Z" fill="white"/>
<defs>
<radialGradient id="paint0_radial_3454_2352" cx="0" cy="0" r="1" gradientUnits="userSpaceOnUse" gradientTransform="translate(28.3158 -16.5263) rotate(98.1012) scale(59.0099)">
<stop stop-color="#6FE5ED"/>
<stop offset="1" stop-color="#56CBD2"/>
</radialGradient>
</defs>
</svg>
