<svg width="43" height="43" viewBox="0 0 43 43" fill="none" xmlns="http://www.w3.org/2000/svg">
<path d="M28.5429 14.4679C29.6787 15.6662 30.5065 17.136 30.9518 18.745H34V24.2514H30.9518C30.5071 25.8616 29.6792 27.3328 28.5429 28.5321L30.0696 31.2477L25.4304 34L23.9071 31.2844C22.3277 31.6937 20.6741 31.6937 19.0946 31.2844L17.5696 34L12.9304 31.2477L14.4571 28.5321C13.3208 27.3328 12.4929 25.8616 12.0482 24.2514H9V18.7468H12.0482C12.4929 17.1365 13.3208 15.6654 14.4571 14.4661L12.9286 11.7523L17.5661 9H17.5714L19.0964 11.7119C20.6759 11.3026 22.3295 11.3026 23.9089 11.7119L25.4286 9H25.4321L30.0714 11.7523L28.5446 14.4679H28.5429ZM26.8571 21.4991C26.8571 20.0392 26.2927 18.6391 25.2881 17.6068C24.2834 16.5744 22.9208 15.9945 21.5 15.9945C20.0792 15.9945 18.7166 16.5744 17.7119 17.6068C16.7073 18.6391 16.1429 20.0392 16.1429 21.4991C16.1429 22.959 16.7073 24.3591 17.7119 25.3914C18.7166 26.4237 20.0792 27.0037 21.5 27.0037C22.9208 27.0037 24.2834 26.4237 25.2881 25.3914C26.2927 24.3591 26.8571 22.959 26.8571 21.4991Z" fill="#B4B4B4"/>
<line x1="0.5" y1="2.18556e-08" x2="0.499999" y2="15" stroke="#C6C9CB"/>
<line x1="15" y1="0.5" y2="0.5" stroke="#C6C9CB"/>
<line x1="42.5" y1="43" x2="42.5" y2="28" stroke="#C6C9CB"/>
<line x1="28" y1="42.5" x2="43" y2="42.5" stroke="#C6C9CB"/>
<line x1="43" y1="0.5" x2="28" y2="0.499999" stroke="#C6C9CB"/>
<line x1="42.5" y1="15" x2="42.5" y2="-2.18557e-08" stroke="#C6C9CB"/>
<line x1="8.74227e-08" y1="42.5" x2="15" y2="42.5" stroke="#C6C9CB"/>
<line x1="0.5" y1="28" x2="0.499998" y2="43" stroke="#C6C9CB"/>
</svg>
