<svg width="43" height="43" viewBox="0 0 43 43" fill="none" xmlns="http://www.w3.org/2000/svg">
<line x1="0.5" y1="2.18556e-08" x2="0.499999" y2="15" stroke="#6D8EA2"/>
<line x1="15" y1="0.5" y2="0.5" stroke="#6D8EA2"/>
<line x1="42.5" y1="43" x2="42.5" y2="28" stroke="#6D8EA2"/>
<line x1="28" y1="42.5" x2="43" y2="42.5" stroke="#6D8EA2"/>
<line x1="43" y1="0.5" x2="28" y2="0.499999" stroke="#6D8EA2"/>
<line x1="42.5" y1="15" x2="42.5" y2="-2.18557e-08" stroke="#6D8EA2"/>
<line x1="8.74227e-08" y1="42.5" x2="15" y2="42.5" stroke="#6D8EA2"/>
<line x1="0.5" y1="28" x2="0.499998" y2="43" stroke="#6D8EA2"/>
<path d="M11 18.459C11 23.8261 15.4214 26.6861 18.6579 29.2461C19.8 30.1495 20.9 31 22 31C23.1 31 24.2 30.1495 25.3421 29.2461C28.5787 26.6861 33 23.8261 33 18.459C33 13.0918 26.9498 9.28555 22 14.4455C17.0502 9.28555 11 13.0918 11 18.459Z" fill="#406981"/>
</svg>
