<svg width="43" height="43" viewBox="0 0 43 43" fill="none" xmlns="http://www.w3.org/2000/svg">
<line x1="0.5" y1="2.18556e-08" x2="0.499999" y2="15" stroke="#6D8EA2"/>
<line x1="15" y1="0.5" y2="0.5" stroke="#6D8EA2"/>
<line x1="42.5" y1="43" x2="42.5" y2="28" stroke="#6D8EA2"/>
<line x1="28" y1="42.5" x2="43" y2="42.5" stroke="#6D8EA2"/>
<line x1="43" y1="0.5" x2="28" y2="0.499999" stroke="#6D8EA2"/>
<line x1="42.5" y1="15" x2="42.5" y2="-2.18557e-08" stroke="#6D8EA2"/>
<line x1="8.74227e-08" y1="42.5" x2="15" y2="42.5" stroke="#6D8EA2"/>
<line x1="0.5" y1="28" x2="0.499998" y2="43" stroke="#6D8EA2"/>
<path d="M14.0157 24.4985L18.5015 28.9843L29.9696 17.5205L25.4795 13.0304L14.0157 24.4985ZM11.0252 31.4764C10.9263 31.876 11.124 32.0737 11.5236 31.9748L17.5047 29.9811L13.0189 25.4953L11.0252 31.4764ZM31.9633 11.0367C29.9739 9.04303 27.9759 10.5383 27.9759 10.5383C27.6493 10.7875 26.4806 12.0336 26.4806 12.0336L30.9664 16.5194C30.9664 16.5194 32.2082 15.3507 32.4617 15.0241C32.4617 15.0241 33.957 13.0347 31.9633 11.0367Z" fill="#406981"/>
</svg>
