<svg width="43" height="43" viewBox="0 0 43 43" fill="none" xmlns="http://www.w3.org/2000/svg">
<line x1="0.5" y1="2.18556e-08" x2="0.499999" y2="15" stroke="#C6C9CB"/>
<line x1="15" y1="0.5" y2="0.5" stroke="#C6C9CB"/>
<line x1="42.5" y1="43" x2="42.5" y2="28" stroke="#C6C9CB"/>
<line x1="28" y1="42.5" x2="43" y2="42.5" stroke="#C6C9CB"/>
<line x1="43" y1="0.5" x2="28" y2="0.499999" stroke="#C6C9CB"/>
<line x1="42.5" y1="15" x2="42.5" y2="-2.18557e-08" stroke="#C6C9CB"/>
<line x1="8.74227e-08" y1="42.5" x2="15" y2="42.5" stroke="#C6C9CB"/>
<line x1="0.5" y1="28" x2="0.499998" y2="43" stroke="#C6C9CB"/>
<path fill-rule="evenodd" clip-rule="evenodd" d="M34 16.8668C34 21.2115 30.4635 24.7336 26.1009 24.7336C25.3049 24.7336 23.4924 24.5506 22.6106 23.8189L21.5084 24.9166C20.8604 25.562 21.0354 25.752 21.3236 26.065C21.4439 26.1956 21.584 26.3476 21.6921 26.5631C21.6921 26.5631 22.6106 27.8438 21.6921 29.1244C21.141 29.8561 19.5979 30.8806 17.8344 29.1244L17.467 29.4903C17.467 29.4903 18.5692 30.7709 17.6507 32.0515C17.0996 32.7834 15.63 33.5151 14.3441 32.2345L13.0583 33.5151C12.1765 34.3933 11.0988 33.881 10.6702 33.5151L9.56801 32.4174C8.53929 31.3929 9.13938 30.283 9.56801 29.8561L19.1204 20.3429C19.1204 20.3429 18.2019 18.8792 18.2019 16.8668C18.2019 12.5221 21.7384 9 26.1009 9C30.4635 9 34 12.5221 34 16.8668ZM26.1012 19.6111C27.623 19.6111 28.8566 18.3825 28.8566 16.8669C28.8566 15.3513 27.623 14.1227 26.1012 14.1227C24.5794 14.1227 23.3457 15.3513 23.3457 16.8669C23.3457 18.3825 24.5794 19.6111 26.1012 19.6111Z" fill="#B4B4B4"/>
</svg>
