<svg width="43" height="43" viewBox="0 0 43 43" fill="none" xmlns="http://www.w3.org/2000/svg">
<line x1="0.5" y1="2.18556e-08" x2="0.499999" y2="15" stroke="#6D8EA2"/>
<line x1="15" y1="0.5" y2="0.5" stroke="#6D8EA2"/>
<line x1="42.5" y1="43" x2="42.5" y2="28" stroke="#6D8EA2"/>
<line x1="28" y1="42.5" x2="43" y2="42.5" stroke="#6D8EA2"/>
<line x1="43" y1="0.5" x2="28" y2="0.499999" stroke="#6D8EA2"/>
<line x1="42.5" y1="15" x2="42.5" y2="-2.18557e-08" stroke="#6D8EA2"/>
<line x1="8.74227e-08" y1="42.5" x2="15" y2="42.5" stroke="#6D8EA2"/>
<line x1="0.5" y1="28" x2="0.499998" y2="43" stroke="#6D8EA2"/>
<path d="M33 24.3423C33 26.8045 29.9909 28.8 26.2778 28.8C22.5647 28.8 19.5556 26.8045 19.5556 24.3423C19.5556 21.8801 22.5647 19.8859 26.2778 19.8859C29.9909 19.8859 33 21.8814 33 24.3423ZM26.2778 31.2141C22.5647 31.2141 19.5556 29.2186 19.5556 26.7577V29.5423C19.5556 32.0045 22.5647 34 26.2778 34C29.9909 34 33 32.0045 33 29.5423V26.7577C33 29.2186 29.9909 31.2141 26.2778 31.2141ZM17.7222 16.9141C21.4353 16.9141 24.4444 14.9186 24.4444 12.4577C24.4444 9.9968 21.4353 8 17.7222 8C14.0091 8 11 9.9955 11 12.4577C11 14.9199 14.0091 16.9141 17.7222 16.9141ZM17.5694 22.1141C18.1502 20.8216 19.0777 19.741 20.2351 19.0084C19.4132 19.2261 18.5692 19.3352 17.7222 19.3334C14.0091 19.3282 11 17.3327 11 14.8718V17.6564C11 20.09 13.9333 22.0543 17.5694 22.1089V22.1141ZM17.7222 34C18.1631 33.9996 18.6035 33.9706 19.041 33.9129C18.2731 33.1775 17.6963 32.244 17.3666 31.2024C13.8197 31.0789 11 29.1393 11 26.7577V29.5423C11 32.0045 14.0091 34 17.7222 34ZM17.1111 28.2228V25.42C13.6889 25.212 11 23.3231 11 21V23.7859C11 26.1103 13.6889 28.02 17.1111 28.2228Z" fill="#406981"/>
</svg>
