<svg width="43" height="43" viewBox="0 0 43 43" fill="none" xmlns="http://www.w3.org/2000/svg">
<line x1="0.5" y1="2.18556e-08" x2="0.499999" y2="15" stroke="#6D8EA2"/>
<line x1="15" y1="0.5" y2="0.5" stroke="#6D8EA2"/>
<line x1="42.5" y1="43" x2="42.5" y2="28" stroke="#6D8EA2"/>
<line x1="28" y1="42.5" x2="43" y2="42.5" stroke="#6D8EA2"/>
<line x1="43" y1="0.5" x2="28" y2="0.499999" stroke="#6D8EA2"/>
<line x1="42.5" y1="15" x2="42.5" y2="-2.18557e-08" stroke="#6D8EA2"/>
<line x1="8.74227e-08" y1="42.5" x2="15" y2="42.5" stroke="#6D8EA2"/>
<line x1="0.5" y1="28" x2="0.499998" y2="43" stroke="#6D8EA2"/>
<path fill-rule="evenodd" clip-rule="evenodd" d="M32 16.9228C32 20.7461 28.8879 23.8456 25.0488 23.8456C24.3483 23.8456 22.7533 23.6846 21.9774 23.0406L21.0074 24.0066C20.4371 24.5746 20.5911 24.7418 20.8448 25.0172C20.9506 25.1322 21.0739 25.2659 21.1691 25.4556C21.1691 25.4556 21.9774 26.5825 21.1691 27.7095C20.6841 28.3534 19.3261 29.255 17.7743 27.7095L17.451 28.0314C17.451 28.0314 18.4209 29.1584 17.6126 30.2853C17.1277 30.9294 15.8344 31.5733 14.7028 30.4464L13.5713 31.5733C12.7953 32.3461 11.847 31.8953 11.4698 31.5733L10.4999 30.6073C9.59457 29.7057 10.1227 28.7291 10.4999 28.3534L18.9059 19.9817C18.9059 19.9817 18.0976 18.6937 18.0976 16.9228C18.0976 13.0994 21.2098 10 25.0488 10C28.8879 10 32 13.0994 32 16.9228ZM25.0491 19.3378C26.3882 19.3378 27.4738 18.2566 27.4738 16.9229C27.4738 15.5892 26.3882 14.508 25.0491 14.508C23.7099 14.508 22.6243 15.5892 22.6243 16.9229C22.6243 18.2566 23.7099 19.3378 25.0491 19.3378Z" fill="#406981"/>
</svg>
