<svg width="43" height="43" viewBox="0 0 43 43" fill="none" xmlns="http://www.w3.org/2000/svg">
<line x1="0.5" y1="2.18556e-08" x2="0.499999" y2="15" stroke="#C6C9CB"/>
<line x1="15" y1="0.5" y2="0.5" stroke="#C6C9CB"/>
<line x1="42.5" y1="43" x2="42.5" y2="28" stroke="#C6C9CB"/>
<line x1="28" y1="42.5" x2="43" y2="42.5" stroke="#C6C9CB"/>
<line x1="43" y1="0.5" x2="28" y2="0.499999" stroke="#C6C9CB"/>
<line x1="42.5" y1="15" x2="42.5" y2="-2.18557e-08" stroke="#C6C9CB"/>
<line x1="8.74227e-08" y1="42.5" x2="15" y2="42.5" stroke="#C6C9CB"/>
<line x1="0.5" y1="28" x2="0.499998" y2="43" stroke="#C6C9CB"/>
<path d="M28.0558 26.416C27.8393 26.3369 27.6033 26.2281 27.3635 26.0991L23.3516 31.5096L23.0663 27.9651H20.9343L20.6489 31.5096L16.6371 26.0991C16.39 26.234 16.1519 26.3445 15.9442 26.416C13.8434 27.1375 8.68231 29.2125 9.01539 33.0993C9.09533 34.0321 14.353 35 22.0003 35C29.647 35 34.9047 34.0321 34.9846 33.0993C35.3178 29.2087 30.1433 27.1776 28.0558 26.416Z" fill="#B4B4B4"/>
<path d="M17.2634 18.3898C17.5554 20.004 18.0462 21.4279 18.6924 22.1294C18.6924 22.9706 18.6924 23.5843 18.6924 24.0755C18.6924 24.1249 18.6836 24.1768 18.6691 24.2305L20.9343 25.2948V26.8558H23.0663V25.2948L25.3303 24.231C25.3159 24.1774 25.307 24.1254 25.307 24.0755C25.307 23.5843 25.307 22.9706 25.307 22.1294C25.9544 21.4279 26.4452 20.004 26.7372 18.3898C27.4179 18.1526 27.8077 17.7729 28.2934 16.1117C28.8109 14.3421 27.5156 14.4023 27.5156 14.4023C28.5633 11.0186 27.1836 7.83856 24.8741 8.07202C23.2806 5.35242 17.9441 8.69327 16.2707 8.46041C16.2707 9.39311 16.6694 10.0924 16.6694 10.0924C16.0876 11.1692 16.3118 13.3163 16.4762 14.4023C16.3807 14.4006 15.2092 14.4125 15.7067 16.1117C16.1929 17.7729 16.5816 18.1527 17.2634 18.3898Z" fill="#B4B4B4"/>
</svg>
