<svg width="43" height="43" viewBox="0 0 43 43" fill="none" xmlns="http://www.w3.org/2000/svg">
<line x1="0.5" y1="2.18556e-08" x2="0.499999" y2="15" stroke="#6D8EA2"/>
<line x1="15" y1="0.5" y2="0.5" stroke="#6D8EA2"/>
<line x1="42.5" y1="43" x2="42.5" y2="28" stroke="#6D8EA2"/>
<line x1="28" y1="42.5" x2="43" y2="42.5" stroke="#6D8EA2"/>
<line x1="43" y1="0.5" x2="28" y2="0.499999" stroke="#6D8EA2"/>
<line x1="42.5" y1="15" x2="42.5" y2="-2.18557e-08" stroke="#6D8EA2"/>
<line x1="8.74227e-08" y1="42.5" x2="15" y2="42.5" stroke="#6D8EA2"/>
<line x1="0.5" y1="28" x2="0.499998" y2="43" stroke="#6D8EA2"/>
<path d="M33.2996 30.0248C33.2415 30.2044 33.1443 30.3669 33.0159 30.4991C32.8875 30.6313 32.7317 30.7295 32.5609 30.7856L29.481 31.7517L27.5604 34.4929C27.4557 34.6451 27.319 34.7691 27.1611 34.8551C27.0032 34.9411 26.8286 34.9866 26.6512 34.988C26.4699 34.9857 26.2917 34.9374 26.1316 34.8471C25.9714 34.7568 25.834 34.627 25.7306 34.4687L22.4575 29.5056C22.34 29.3329 22.2675 29.1302 22.2476 28.9181C22.2276 28.706 22.2608 28.492 22.3439 28.298C22.4173 28.1109 22.5339 27.9465 22.6828 27.8199C22.8318 27.6933 23.0084 27.6085 23.1963 27.5735C24.1951 27.3883 25.1418 26.9665 25.9662 26.3394C26.7906 25.7122 27.4714 24.8958 27.9581 23.9507C28.0519 23.7728 28.1865 23.623 28.3495 23.5153C28.5124 23.4077 28.6984 23.3456 28.89 23.3349C29.0828 23.3251 29.2747 23.3677 29.4477 23.4585C29.6207 23.5494 29.769 23.6855 29.8788 23.8541L33.1632 28.9501C33.2632 29.1055 33.3277 29.2837 33.3514 29.4703C33.375 29.6569 33.3573 29.8468 33.2996 30.0248ZM20.7983 27.6097C19.7995 27.4246 18.8527 27.0028 18.0284 26.3756C17.204 25.7484 16.5231 24.932 16.0364 23.987C15.9418 23.8094 15.8064 23.6602 15.6429 23.5533C15.4793 23.4464 15.2929 23.3853 15.1012 23.3757C14.9094 23.366 14.7184 23.4082 14.5461 23.4982C14.3737 23.5882 14.2257 23.7231 14.1157 23.8903L10.8427 28.9501C10.7399 29.1073 10.6738 29.2881 10.6498 29.4778C10.6258 29.6674 10.6445 29.8604 10.7044 30.0408C10.7644 30.2212 10.8638 30.384 10.9945 30.5156C11.1253 30.6472 11.2836 30.7439 11.4564 30.7977L14.5249 31.7638L16.4455 34.505C16.5502 34.6572 16.6869 34.7812 16.8448 34.8672C17.0027 34.9532 17.1773 34.9987 17.3547 35.0001C17.536 34.9978 17.7142 34.9495 17.8743 34.8592C18.0345 34.7688 18.1719 34.6391 18.2753 34.4808L21.5484 29.5177C21.6659 29.3449 21.7384 29.1422 21.7583 28.9301C21.7783 28.7181 21.745 28.5041 21.662 28.3101C21.5895 28.1371 21.4797 27.9847 21.3415 27.8651C21.2033 27.7455 21.0406 27.6622 20.8665 27.6218L20.7983 27.6097Z" fill="#406981"/>
<path d="M22 31.6456C28.6274 31.6456 34 26.1285 34 19.3228C34 12.5171 28.6274 7 22 7C15.3726 7 10 12.5171 10 19.3228C10 26.1285 15.3726 31.6456 22 31.6456Z" fill="#406981"/>
<path d="M21.0137 23.1145C20.7978 23.1121 20.5849 23.0646 20.3888 22.9752C20.1927 22.8858 20.0177 22.7564 19.8752 22.5955L17.8137 20.3055C17.6698 20.1569 17.5578 19.9809 17.4843 19.7881C17.4108 19.5954 17.3774 19.3898 17.3861 19.1839C17.3948 18.978 17.4455 18.776 17.535 18.59C17.6245 18.4041 17.751 18.238 17.9069 18.1019C18.0628 17.9657 18.2449 17.8623 18.4421 17.7979C18.6394 17.7334 18.8478 17.7093 19.0547 17.7269C19.2616 17.7445 19.4628 17.8035 19.6461 17.9003C19.8294 17.9972 19.9911 18.1298 20.1214 18.2903L21.0137 19.2826L23.9675 16.0004C24.2421 15.7167 24.6165 15.5491 25.0126 15.5326C25.4086 15.5161 25.7958 15.652 26.0934 15.9118C26.391 16.1717 26.576 16.5355 26.6099 16.9275C26.6438 17.3194 26.5239 17.7092 26.2752 18.0155L22.1675 22.5955C22.0234 22.7583 21.8459 22.8888 21.6469 22.9783C21.448 23.0678 21.2321 23.1142 21.0137 23.1145Z" fill="#ECF1F4"/>
</svg>
