<svg width="43" height="43" viewBox="0 0 43 43" fill="none" xmlns="http://www.w3.org/2000/svg">
<line x1="0.5" y1="2.18556e-08" x2="0.499999" y2="15" stroke="#C6C9CB"/>
<line x1="15" y1="0.5" y2="0.5" stroke="#C6C9CB"/>
<line x1="42.5" y1="43" x2="42.5" y2="28" stroke="#C6C9CB"/>
<line x1="28" y1="42.5" x2="43" y2="42.5" stroke="#C6C9CB"/>
<line x1="43" y1="0.5" x2="28" y2="0.499999" stroke="#C6C9CB"/>
<line x1="42.5" y1="15" x2="42.5" y2="-2.18557e-08" stroke="#C6C9CB"/>
<line x1="8.74227e-08" y1="42.5" x2="15" y2="42.5" stroke="#C6C9CB"/>
<line x1="0.5" y1="28" x2="0.499998" y2="43" stroke="#C6C9CB"/>
<path d="M26.4667 16.3789L22.8667 10H21.1333L17.5333 16.3789H26.4667Z" fill="#B4B4B4"/>
<path d="M18.0667 10H13.3333L8 16.3789H14.5333L18.0667 10Z" fill="#B4B4B4"/>
<path d="M36 16.3789L30.6667 10H25.9333L29.4667 16.3789H36Z" fill="#B4B4B4"/>
<path d="M17.1333 18.9684L22 34L26.8667 18.9684H17.1333Z" fill="#B4B4B4"/>
<path d="M26.2 29.7684L36 18.9684H29.6667L26.2 29.7684Z" fill="#B4B4B4"/>
<path d="M8.06667 18.9684L17.8 29.7684L14.3333 18.9684H8.06667Z" fill="#B4B4B4"/>
</svg>
