<svg width="43" height="43" viewBox="0 0 43 43" fill="none" xmlns="http://www.w3.org/2000/svg">
<line x1="0.5" y1="2.18556e-08" x2="0.499999" y2="15" stroke="#6D8EA2"/>
<line x1="15" y1="0.5" y2="0.5" stroke="#6D8EA2"/>
<line x1="42.5" y1="43" x2="42.5" y2="28" stroke="#6D8EA2"/>
<line x1="28" y1="42.5" x2="43" y2="42.5" stroke="#6D8EA2"/>
<line x1="43" y1="0.5" x2="28" y2="0.499999" stroke="#6D8EA2"/>
<line x1="42.5" y1="15" x2="42.5" y2="-2.18557e-08" stroke="#6D8EA2"/>
<line x1="8.74227e-08" y1="42.5" x2="15" y2="42.5" stroke="#6D8EA2"/>
<line x1="0.5" y1="28" x2="0.499998" y2="43" stroke="#6D8EA2"/>
<path d="M21.2784 30.7706C21.5094 30.8907 21.6249 30.9507 21.7851 30.9818C21.91 31.0061 22.09 31.0061 22.2149 30.9818C22.3751 30.9507 22.4906 30.8907 22.7216 30.7706C24.8575 29.6603 31 26.032 31 21.025V16.7798C31 15.8824 31 15.4337 30.8528 15.0481C30.7229 14.7074 30.5117 14.4033 30.2376 14.1623C29.9273 13.8895 29.5062 13.7319 28.664 13.4169L22.632 11.1601C22.3981 11.0726 22.2812 11.0289 22.1609 11.0115C22.0542 10.9962 21.9458 10.9962 21.8391 11.0115C21.7188 11.0289 21.6019 11.0726 21.368 11.1601L15.3359 13.4169C14.4938 13.7319 14.0727 13.8895 13.7624 14.1623C13.4882 14.4033 13.2771 14.7074 13.1471 15.0481C13 15.4337 13 15.8824 13 16.7798V21.025C13 26.032 19.1425 29.6603 21.2784 30.7706Z" fill="#406981"/>
<path d="M27 17L20.8125 24L18 20.8182" stroke="white" stroke-linecap="round" stroke-linejoin="round"/>
</svg>
