<svg width="35" height="35" viewBox="0 0 35 35" fill="none" xmlns="http://www.w3.org/2000/svg">
<path d="M17.5 0C7.83494 0 0 7.83494 0 17.5C0 27.1651 7.83494 35 17.5 35C27.1651 35 35 27.1651 35 17.5C35 7.83494 27.1651 0 17.5 0Z" fill="#40B3E0"/>
<path d="M26.0152 10.0667L22.8895 25.8259C22.8895 25.8259 22.4524 26.9188 21.2503 26.3942L14.0373 20.8642L11.4145 19.5965L6.99927 18.1101C6.99927 18.1101 6.32169 17.8698 6.25606 17.3452C6.19057 16.8206 7.02114 16.5365 7.02114 16.5365L24.5725 9.65135C24.5725 9.65135 26.0152 9.01752 26.0152 10.0667Z" fill="white"/>
<path d="M13.4829 25.6489C13.4829 25.6489 13.2723 25.6292 13.01 24.7985C12.7478 23.968 11.4145 19.5965 11.4145 19.5965L22.0152 12.8645C22.0152 12.8645 22.6273 12.4929 22.6055 12.8645C22.6055 12.8645 22.7147 12.93 22.3868 13.236C22.059 13.5421 14.0592 20.7331 14.0592 20.7331" fill="#D2E5F1"/>
<path d="M16.8029 22.9845L13.9499 25.5857C13.9499 25.5857 13.7269 25.755 13.4829 25.6489L14.0292 20.8171" fill="#B5CFE4"/>
</svg>
