<svg width="51" height="28" viewBox="0 0 51 28" fill="none" xmlns="http://www.w3.org/2000/svg">
<path fill-rule="evenodd" clip-rule="evenodd" d="M43.8928 17.8037C45.5845 19.4061 47.3701 20.9137 48.8874 22.6777C49.5576 23.4615 50.1922 24.2705 50.6776 25.1802C51.3655 26.4734 50.7425 27.8965 49.5472 27.9737L42.1174 27.9704C40.2011 28.1247 38.6725 27.3763 37.3871 26.1052C36.3584 25.0887 35.4058 24.0068 34.4166 22.956C34.0111 22.5265 33.5867 22.1223 33.0796 21.8029C32.0654 21.1642 31.185 21.3598 30.6054 22.386C30.0151 23.4299 29.8812 24.5857 29.8232 25.749C29.7436 27.4463 29.2148 27.8926 27.4573 27.9703C23.7015 28.1421 20.1371 27.5908 16.8259 25.7527C13.9066 24.1323 11.6428 21.8447 9.67236 19.2549C5.83597 14.212 2.89805 8.67067 0.257567 2.97411C-0.336785 1.69066 0.097878 1.00172 1.55753 0.977334C3.98136 0.931654 6.40485 0.934906 8.83152 0.974084C9.81663 0.988064 10.4688 1.53623 10.8492 2.43911C12.1605 5.56733 13.7651 8.54355 15.7793 11.3023C16.3156 12.0367 16.8626 12.7712 17.6414 13.2881C18.503 13.8605 19.159 13.6708 19.5644 12.7396C19.8216 12.1492 19.9342 11.5133 19.9922 10.8809C20.1842 8.7053 20.2095 6.53344 19.8727 4.36549C19.6659 3.01247 18.8804 2.13658 17.4888 1.88054C16.7786 1.75 16.8843 1.49364 17.2282 1.1004C17.8254 0.422179 18.3871 0 19.5067 0H27.9036C29.2255 0.253112 29.5191 0.829239 29.7 2.11967L29.7072 11.1685C29.6928 11.668 29.9645 13.1504 30.8919 13.4811C31.6342 13.7165 32.1235 13.1404 32.5689 12.6837C34.5794 10.6136 36.0142 8.16721 37.2961 5.63398C37.865 4.52009 38.3541 3.36329 38.8281 2.20746C39.1793 1.34977 39.7305 0.927752 40.7263 0.946447L48.8078 0.953437C49.0474 0.953437 49.2899 0.956851 49.5219 0.995379C50.8837 1.22053 51.2569 1.78885 50.8363 3.07896C50.1736 5.10304 48.8842 6.78981 47.6234 8.48437C46.2757 10.2935 44.8343 12.0408 43.4978 13.8607C42.2699 15.5226 42.3674 16.3603 43.8928 17.8037Z" fill="#0077FF"/>
</svg>
